<mxfile host="app.diagrams.net" modified="2023-08-16T10:08:13.984Z" agent="Mozilla/5.0 (Windows NT 10.0; Win64; x64) AppleWebKit/537.36 (KHTML, like Gecko) Chrome/115.0.0.0 Safari/537.36" version="21.5.0" etag="PxOwdKCo20NshS8KEZhj" type="github">
  <diagram name="第 1 页" id="G0ohQhwmGgykcpr7lPJz">
    <mxGraphModel>
      <root>
        <mxCell id="0" />
        <mxCell id="1" parent="0" />
      </root>
    </mxGraphModel>
  </diagram>
</mxfile>
